# xmcd
#
# Track frame offsets:
#	150
#	16861
#	53116
#	75466
#	80496
#	118829
#	148457
#	163399
#
# Disc length: 2421 seconds
#
# Revision: 0
# Processed by: cddbd v1.5.1PL2 Copyright (c) Steve Scherf et al.
# Submitted via: EasyCDDAExtractor 8.2.3.1
#
DISCID=69097308
DTITLE=Paul Barrere and Fred Tackett - Theatricum Botanicum - Topanga, CA 05-12-
DTITLE=02 disc 2
DYEAR=2002
DGENRE=Blues
TTITLE0=Roll 'Em Easy
TTITLE1=Sailin' Shoes
TTITLE2=Dixie Chicken ->
TTITLE3=Tennessee Jed ->
TTITLE4=Dixie Chicken
TTITLE5=Willin'
TTITLE6=Feats Don't Fail Me Now
TTITLE7=(announcements)
EXTD=
EXTT0=
EXTT1=
EXTT2=
EXTT3=
EXTT4=
EXTT5=
EXTT6=
EXTT7=
PLAYORDER=
